<?xml version="1.0" standalone="no"?>
<!DOCTYPE svg PUBLIC "-//W3C//DTD SVG 20010904//EN"
 "http://www.w3.org/TR/2001/REC-SVG-20010904/DTD/svg10.dtd">
<svg version="1.0" xmlns="http://www.w3.org/2000/svg"
 width="1253.000000pt" height="1253.000000pt" viewBox="0 0 1253.000000 1253.000000"
 preserveAspectRatio="xMidYMid meet">
<metadata>
Created by potrace 1.14, written by Peter Selinger 2001-2017
</metadata>
<g transform="translate(0.000000,1253.000000) scale(0.100000,-0.100000)"
fill="#000000" stroke="none">
<path d="M10097 8774 c-1 -1 -31 -5 -67 -8 -55 -6 -90 -12 -165 -30 -8 -2 -70
-20 -105 -31 -93 -29 -310 -153 -425 -244 -43 -34 -977 -963 -972 -967 1 -2
25 3 52 11 94 27 226 42 343 40 64 -2 128 -6 142 -9 14 -4 37 -8 51 -11 26 -5
69 -21 146 -56 31 -14 41 -23 36 -35 -8 -22 21 2 104 88 36 36 71 65 77 64 6
-2 7 -1 3 2 -12 6 63 81 77 78 6 -2 7 -1 3 2 -5 2 2 15 14 28 12 13 27 21 33
17 6 -3 8 -3 4 2 -10 11 10 35 25 31 7 -1 8 -1 4 2 -5 2 -1 13 9 23 9 10 21
16 26 13 4 -3 7 0 6 8 -2 7 3 12 10 10 8 -1 11 1 8 6 -6 10 74 88 86 85 4 -2
7 3 5 10 -1 6 4 11 11 9 8 -1 11 2 8 7 -6 8 31 44 105 103 48 38 176 101 209
102 16 1 26 4 24 7 -7 12 94 27 107 15 8 -8 10 -8 6 0 -4 7 5 11 23 11 16 0
26 -5 23 -10 -3 -5 3 -5 13 1 15 8 24 7 38 -6 11 -9 16 -11 12 -4 -9 15 -2 15
49 1 118 -32 255 -130 346 -250 66 -86 118 -203 115 -259 0 -21 2 -36 6 -34
16 10 -12 -194 -32 -236 -48 -100 -80 -154 -116 -200 -24 -30 -229 -240 -457
-467 -336 -335 -416 -410 -427 -400 -12 10 -12 9 -2 -4 9 -13 2 -24 -42 -67
-30 -28 -57 -49 -60 -46 -3 2 -4 1 -1 -3 8 -10 -127 -143 -138 -136 -6 3 -7 1
-4 -4 8 -13 -84 -99 -165 -154 -75 -52 -191 -90 -276 -91 -68 -1 -149 9 -167
21 -5 3 -12 6 -15 7 -36 7 -59 18 -53 27 3 6 1 7 -5 3 -6 -4 -40 8 -74 26 -75
40 -243 200 -234 223 3 8 0 14 -6 12 -13 -2 -68 94 -61 106 2 4 -1 7 -8 7 -6
0 -9 8 -6 20 3 11 2 18 -3 15 -12 -7 -22 24 -25 78 -2 27 -6 52 -9 55 -4 3
-20 -9 -37 -26 -17 -18 -36 -29 -42 -25 -5 3 -7 1 -3 -5 8 -14 -153 -174 -167
-165 -5 3 -7 1 -3 -5 8 -14 -193 -214 -208 -205 -6 3 -8 3 -4 -2 4 -4 3 -14
-3 -22 -9 -9 -8 -17 0 -27 6 -7 8 -22 4 -31 -4 -12 -3 -16 4 -12 6 4 22 -16
37 -43 47 -86 146 -212 233 -297 54 -52 79 -83 71 -87 -7 -3 -3 -3 10 0 12 3
22 1 22 -3 0 -5 36 -33 80 -62 46 -30 77 -57 74 -63 -5 -7 -2 -8 5 -3 13 8 81
-24 81 -38 0 -4 5 -5 10 -2 6 4 25 -3 44 -14 18 -11 36 -18 39 -14 4 3 7 2 7
-3 0 -5 9 -10 19 -11 11 -1 40 -9 65 -17 26 -9 70 -19 99 -22 29 -4 55 -11 58
-16 4 -6 9 -5 12 3 3 8 6 10 6 4 1 -11 65 -11 181 0 41 4 86 8 100 9 14 1 30
5 36 9 6 3 23 8 38 11 37 7 94 25 133 42 17 8 34 14 37 14 17 0 197 95 244
128 17 13 32 21 32 18 0 -3 9 3 20 14 12 12 25 18 31 15 5 -4 8 -2 7 3 -2 5
11 21 28 35 24 21 34 24 44 14 10 -9 11 -9 5 1 -9 16 53 84 68 75 6 -3 7 -2 4
3 -7 12 143 160 157 156 6 -2 8 0 4 4 -11 10 12 35 26 27 6 -3 8 -3 4 2 -11
11 12 36 26 28 6 -3 8 -2 3 2 -10 12 43 66 57 58 6 -3 8 -3 4 2 -10 11 11 37
23 29 5 -3 8 -2 7 3 -4 12 63 83 74 77 5 -3 7 0 6 8 -2 7 3 12 10 10 8 -1 11
1 9 6 -3 4 40 52 95 107 56 55 98 94 93 86 -5 -10 -4 -12 4 -7 6 4 9 11 7 15
-3 4 32 43 77 86 44 44 77 74 72 66 -5 -10 -4 -12 4 -7 6 4 9 11 6 15 -7 12
30 43 40 34 4 -5 5 -3 2 3 -8 14 17 37 28 26 5 -4 6 -2 2 3 -6 12 102 122 116
117 4 -1 6 2 3 7 -8 12 18 33 29 23 5 -4 5 -2 2 4 -8 14 17 37 27 26 4 -4 6 0
4 8 -2 8 3 14 10 12 8 -1 11 1 8 6 -7 12 68 84 79 75 4 -5 5 -3 2 3 -7 12 26
48 35 38 3 -3 5 3 5 13 -1 11 4 18 15 17 10 -1 15 2 12 8 -3 5 2 21 11 35 14
21 19 23 27 12 8 -11 9 -10 4 3 -3 11 12 43 39 84 44 66 145 263 145 284 0 6
7 27 16 48 19 42 20 46 22 86 2 26 4 27 20 15 15 -13 16 -12 4 2 -7 9 -11 30
-8 45 20 128 23 204 10 319 -4 39 -7 78 -8 87 0 9 -3 15 -7 12 -5 -3 -17 48
-21 94 -1 6 -6 12 -11 12 -5 0 -7 6 -4 14 3 8 2 16 -3 18 -4 2 -10 12 -12 23
-1 11 -6 22 -9 25 -3 3 -18 30 -33 60 -34 68 -123 201 -170 254 -19 22 -32 44
-29 49 3 6 1 7 -4 4 -6 -4 -26 10 -45 31 -18 20 -63 62 -98 92 -36 30 -67 58
-70 61 -3 3 -29 21 -57 41 -29 19 -51 37 -48 39 2 3 -5 6 -17 6 -12 1 -24 6
-27 11 -15 22 -214 102 -297 120 -71 15 -258 34 -267 26z"/>
<path d="M2567 8694 c-1 -1 -29 -5 -62 -9 -33 -3 -80 -11 -105 -17 -25 -5 -50
-11 -57 -12 -7 -1 -16 -5 -19 -9 -4 -4 -14 -7 -22 -7 -8 0 -57 -21 -110 -47
-54 -26 -101 -46 -107 -44 -5 1 -7 0 -3 -4 4 -4 -14 -24 -40 -45 -51 -41 -142
-133 -142 -144 0 -3 -11 -23 -25 -44 -25 -38 -74 -151 -81 -186 -2 -10 -33
-49 -70 -85 -82 -82 -140 -162 -193 -267 -38 -77 -81 -214 -81 -259 0 -12 -3
-24 -6 -28 -8 -7 -7 -154 1 -232 8 -73 29 -160 56 -227 10 -27 16 -54 13 -60
-4 -7 -2 -8 4 -4 6 4 17 -5 26 -22 20 -39 97 -108 140 -126 41 -17 124 -15
135 3 5 7 8 22 7 34 -1 16 10 29 37 45 22 12 45 22 52 22 7 0 16 7 19 16 4 9
13 14 21 10 8 -3 14 0 12 7 -1 7 8 11 23 9 17 -1 21 1 11 7 -10 7 -8 12 10 24
12 9 27 13 33 10 6 -3 8 -3 4 2 -11 11 12 36 25 28 5 -3 7 -2 4 4 -8 13 31 45
45 37 6 -4 8 -3 4 4 -3 6 12 30 34 54 32 35 42 40 49 28 7 -9 6 -20 -2 -30
-11 -13 -10 -13 6 -1 15 12 20 11 40 -5 41 -35 62 -59 59 -67 -1 -5 1 -6 6 -3
20 12 138 -144 128 -170 -3 -8 -2 -12 4 -9 22 14 35 -81 31 -230 -7 -245 -6
-345 3 -445 5 -52 10 -108 11 -125 1 -16 6 -38 10 -48 4 -9 5 -26 2 -37 -3
-11 -2 -20 3 -20 4 0 11 -20 15 -46 6 -44 67 -248 85 -289 63 -140 106 -223
144 -283 26 -40 44 -77 40 -84 -4 -6 -3 -8 4 -4 6 3 21 -8 33 -26 12 -18 46
-61 75 -94 30 -34 50 -65 46 -68 -4 -4 -2 -6 4 -4 17 5 125 -101 118 -115 -4
-7 -4 -9 1 -5 11 10 47 -11 40 -23 -4 -5 -3 -8 2 -7 15 4 54 -23 47 -34 -5 -7
-2 -8 6 -3 7 4 15 3 19 -2 6 -9 84 -61 156 -103 22 -13 43 -28 46 -33 3 -5 9
-8 13 -8 20 3 26 0 20 -11 -4 -6 -3 -8 4 -4 14 9 103 -35 95 -47 -3 -6 -1 -7
5 -3 16 10 133 -34 125 -47 -3 -6 -1 -7 5 -3 7 4 46 -4 88 -18 42 -14 83 -26
90 -26 14 0 15 -10 15 -175 0 -137 1 -132 -26 -137 -13 -3 -27 -3 -29 -1 -5 6
-281 4 -311 -2 -11 -2 -24 -4 -28 -4 -13 -1 -35 -62 -29 -83 11 -43 49 -53
189 -53 l133 1 -90 -92 c-72 -73 -90 -97 -90 -120 1 -43 24 -67 64 -68 32 -1
47 10 164 126 71 70 133 124 137 120 5 -4 5 -2 2 4 -8 14 17 37 27 26 4 -4 6
-2 5 3 -2 6 5 22 15 38 10 15 16 36 13 47 -3 10 0 21 7 24 7 3 7 5 -1 5 -7 1
-13 8 -13 16 0 8 6 15 13 15 9 0 8 3 -2 9 -9 6 -10 10 -2 16 9 5 9 10 0 21 -9
11 -8 14 2 14 9 0 10 3 4 8 -6 4 -11 16 -11 27 0 11 5 23 11 27 7 5 6 8 -1 8
-14 0 -14 80 0 80 6 0 4 5 -4 10 -12 8 -13 11 -1 19 11 7 11 9 0 13 -8 3 -11
9 -7 13 4 4 15 4 25 -1 10 -4 25 -8 33 -9 8 -1 53 -5 100 -10 47 -5 93 -9 103
-8 9 0 17 -2 17 -6 0 -6 184 -5 197 1 4 3 28 4 53 4 l44 -1 1 -50 c0 -27 -4
-56 -8 -62 -5 -7 -6 -13 -1 -13 5 0 9 -25 9 -55 l0 -55 -191 0 c-172 0 -193
-2 -212 -19 -33 -28 -30 -84 6 -108 23 -16 45 -19 152 -17 69 0 128 -1 132 -3
9 -5 -102 -109 -113 -106 -5 2 -8 -1 -6 -6 1 -5 -10 -23 -25 -40 -35 -38 -36
-80 -5 -109 38 -36 78 -26 131 34 16 18 33 31 38 28 5 -3 7 -1 6 4 -2 6 49 62
113 125 l117 115 -2 168 c-1 93 0 177 2 186 5 19 51 40 92 42 15 1 26 4 23 9
-4 6 12 9 33 6 4 0 10 3 13 8 11 15 73 43 82 37 5 -3 9 0 9 6 0 7 7 10 15 6 8
-3 14 0 12 7 -1 7 6 11 16 11 10 -1 16 0 13 3 -9 9 63 53 78 47 8 -3 17 -1 21
5 4 7 -1 9 -12 5 -16 -5 -15 -3 2 10 11 9 40 33 64 54 76 63 88 72 95 64 4 -3
4 2 0 13 -4 11 12 -1 35 -27 23 -26 41 -48 40 -50 -2 -2 25 -29 59 -62 34 -32
59 -63 56 -67 -3 -5 1 -9 8 -9 7 0 42 -29 78 -63 36 -34 85 -77 108 -96 73
-59 212 -141 237 -141 8 0 15 -3 15 -8 0 -4 28 -9 62 -10 34 -2 66 -6 72 -9 5
-3 6 -1 3 4 -4 6 -1 13 7 16 14 6 29 57 16 57 -4 0 -13 19 -20 43 -7 23 -28
73 -46 111 -19 38 -32 76 -29 83 2 8 1 12 -4 9 -5 -3 -31 38 -59 92 -55 107
-78 150 -140 263 -23 42 -39 79 -34 84 4 4 2 6 -3 2 -14 -7 -68 89 -59 105 4
6 3 8 -3 5 -13 -8 -95 131 -87 146 4 7 4 9 -1 5 -11 -11 -38 29 -29 44 4 6 3
8 -2 5 -10 -6 -201 299 -197 314 2 5 -1 9 -6 9 -15 0 -53 69 -45 81 4 7 3 9
-3 6 -14 -9 -97 119 -87 134 4 8 3 9 -4 5 -7 -4 -22 11 -38 36 -15 24 -57 88
-92 143 -36 55 -65 105 -65 112 0 7 -5 11 -11 10 -6 -1 -10 6 -9 16 0 10 -1
16 -4 13 -10 -9 -84 105 -77 117 4 7 4 9 -1 5 -7 -7 -31 16 -34 34 -1 4 -13
19 -27 33 -14 14 -22 30 -19 35 3 6 2 10 -3 10 -12 0 -215 290 -215 307 0 7
-3 10 -7 8 -11 -7 -91 111 -82 119 4 4 2 6 -4 4 -6 -1 -40 35 -75 82 -126 166
-212 275 -241 307 -19 19 -27 36 -23 44 5 7 4 10 -2 6 -5 -3 -16 2 -24 11 -62
74 -88 110 -84 115 3 4 2 5 -2 2 -9 -7 -63 56 -57 67 3 5 0 7 -8 6 -7 -2 -12
4 -10 12 2 8 0 12 -4 8 -10 -11 -56 41 -48 54 4 6 2 8 -3 5 -13 -8 -46 27 -36
37 5 4 3 6 -4 4 -16 -4 -114 104 -108 119 2 7 -1 12 -8 10 -7 -1 -11 4 -10 10
2 7 -3 12 -10 10 -6 -1 -11 6 -10 16 0 10 -1 16 -4 13 -13 -12 -57 60 -47 76
4 6 3 8 -4 4 -13 -8 -56 50 -47 64 4 6 2 9 -3 8 -15 -4 -74 81 -66 94 4 6 3 8
-3 5 -6 -4 -16 0 -23 8 -10 12 -10 19 1 33 13 15 12 16 -3 3 -15 -11 -18 -11
-19 0 -1 8 -1 18 0 22 1 5 -3 6 -8 3 -5 -3 -20 10 -35 28 -14 19 -33 41 -41
50 -9 9 -13 21 -9 27 4 7 3 9 -3 6 -5 -3 -41 26 -80 66 -38 40 -85 83 -103 97
-19 14 -46 35 -61 48 -15 12 -31 22 -37 22 -6 0 -12 4 -14 8 -3 8 -154 84
-203 102 -25 9 -111 29 -156 36 -35 6 -207 12 -212 8z"/>
<path d="M9996 8097 c3 -10 9 -15 12 -12 3 3 0 11 -7 18 -10 9 -11 8 -5 -6z"/>
<path d="M10035 8101 c-3 -5 -2 -12 3 -15 5 -3 9 1 9 9 0 17 -3 19 -12 6z"/>
<path d="M10066 8088 c3 -5 10 -6 15 -3 13 9 11 12 -6 12 -8 0 -12 -4 -9 -9z"/>
<path d="M10200 8070 c-12 -7 -10 -9 7 -7 12 0 19 5 17 9 -6 10 -6 10 -24 -2z"/>
<path d="M10254 8072 c4 -3 14 -7 22 -8 9 -1 13 0 10 4 -4 3 -14 7 -22 8 -9 1
-13 0 -10 -4z"/>
<path d="M10053 8035 c0 -8 4 -12 9 -9 5 3 6 10 3 15 -9 13 -12 11 -12 -6z"/>
<path d="M9970 8029 c0 -5 5 -7 10 -4 6 3 10 8 10 11 0 2 -4 4 -10 4 -5 0 -10
-5 -10 -11z"/>
<path d="M10150 8030 c0 -5 5 -10 11 -10 5 0 7 5 4 10 -3 6 -8 10 -11 10 -2 0
-4 -4 -4 -10z"/>
<path d="M10196 8023 c-6 -14 -5 -15 5 -6 7 7 10 15 7 18 -3 3 -9 -2 -12 -12z"/>
<path d="M10436 7997 c3 -10 9 -15 12 -12 3 3 0 11 -7 18 -10 9 -11 8 -5 -6z"/>
<path d="M9890 7989 c0 -5 5 -7 10 -4 6 3 10 8 10 11 0 2 -4 4 -10 4 -5 0 -10
-5 -10 -11z"/>
<path d="M9954 7992 c4 -3 14 -7 22 -8 9 -1 13 0 10 4 -4 3 -14 7 -22 8 -9 1
-13 0 -10 -4z"/>
<path d="M9759 7963 c-13 -16 -12 -17 4 -4 9 7 17 15 17 17 0 8 -8 3 -21 -13z"/>
<path d="M10045 7970 c-3 -6 1 -7 9 -4 18 7 21 14 7 14 -6 0 -13 -4 -16 -10z"/>
<path d="M10507 7969 c7 -7 15 -10 18 -7 3 3 -2 9 -12 12 -14 6 -15 5 -6 -5z"/>
<path d="M9705 7950 c-3 -6 1 -7 9 -4 18 7 21 14 7 14 -6 0 -13 -4 -16 -10z"/>
<path d="M9795 7930 c3 -5 8 -10 11 -10 2 0 4 5 4 10 0 6 -5 10 -11 10 -5 0
-7 -4 -4 -10z"/>
<path d="M9834 7912 c4 -3 14 -7 22 -8 9 -1 13 0 10 4 -4 3 -14 7 -22 8 -9 1
-13 0 -10 -4z"/>
<path d="M9746 7888 c3 -5 10 -6 15 -3 13 9 11 12 -6 12 -8 0 -12 -4 -9 -9z"/>
<path d="M10030 7891 c0 -6 4 -13 10 -16 6 -3 7 1 4 9 -7 18 -14 21 -14 7z"/>
<path d="M9650 7869 c0 -5 5 -7 10 -4 6 3 10 8 10 11 0 2 -4 4 -10 4 -5 0 -10
-5 -10 -11z"/>
<path d="M9795 7869 c-3 -4 2 -6 10 -5 21 3 28 13 10 13 -9 0 -18 -4 -20 -8z"/>
<path d="M9730 7830 c0 -5 5 -10 11 -10 5 0 7 5 4 10 -3 6 -8 10 -11 10 -2 0
-4 -4 -4 -10z"/>
<path d="M9639 7803 c-13 -16 -12 -17 4 -4 9 7 17 15 17 17 0 8 -8 3 -21 -13z"/>
<path d="M9987 7809 c7 -7 15 -10 18 -7 3 3 -2 9 -12 12 -14 6 -15 5 -6 -5z"/>
<path d="M9613 7761 c0 -11 5 -18 9 -15 4 3 5 11 1 19 -7 21 -12 19 -10 -4z"/>
<path d="M11430 7731 c0 -6 4 -13 10 -16 6 -3 7 1 4 9 -7 18 -14 21 -14 7z"/>
<path d="M10675 7691 c-3 -5 -2 -12 3 -15 5 -3 9 1 9 9 0 17 -3 19 -12 6z"/>
<path d="M9490 7669 c0 -5 5 -7 10 -4 6 3 10 8 10 11 0 2 -4 4 -10 4 -5 0 -10
-5 -10 -11z"/>
<path d="M9535 7670 c3 -5 8 -10 11 -10 2 0 4 5 4 10 0 6 -5 10 -11 10 -5 0
-7 -4 -4 -10z"/>
<path d="M9450 7629 c0 -5 5 -7 10 -4 6 3 10 8 10 11 0 2 -4 4 -10 4 -5 0 -10
-5 -10 -11z"/>
<path d="M9494 7628 c-4 -7 -4 -10 1 -6 4 4 15 2 24 -5 14 -11 14 -10 2 6 -16
20 -18 21 -27 5z"/>
<path d="M9687 7569 c7 -7 15 -10 18 -7 3 3 -2 9 -12 12 -14 6 -15 5 -6 -5z"/>
<path d="M9296 7508 c3 -5 10 -6 15 -3 13 9 11 12 -6 12 -8 0 -12 -4 -9 -9z"/>
<path d="M9335 7511 c-3 -5 -2 -12 3 -15 5 -3 9 1 9 9 0 17 -3 19 -12 6z"/>
<path d="M8975 7490 c-3 -5 -1 -10 4 -10 6 0 11 5 11 10 0 6 -2 10 -4 10 -3 0
-8 -4 -11 -10z"/>
<path d="M11379 7498 c-5 -18 -6 -38 -1 -34 7 8 12 36 6 36 -2 0 -4 -1 -5 -2z"/>
<path d="M9294 7472 c4 -3 14 -7 22 -8 9 -1 13 0 10 4 -4 3 -14 7 -22 8 -9 1
-13 0 -10 -4z"/>
<path d="M9175 7429 c-3 -4 2 -6 10 -5 21 3 28 13 10 13 -9 0 -18 -4 -20 -8z"/>
<path d="M11395 7430 c3 -5 8 -10 11 -10 2 0 4 5 4 10 0 6 -5 10 -11 10 -5 0
-7 -4 -4 -10z"/>
<path d="M9087 7409 c7 -7 15 -10 18 -7 3 3 -2 9 -12 12 -14 6 -15 5 -6 -5z"/>
<path d="M9390 7410 c0 -5 5 -10 11 -10 5 0 7 5 4 10 -3 6 -8 10 -11 10 -2 0
-4 -4 -4 -10z"/>
<path d="M8953 7385 c0 -8 4 -12 9 -9 5 3 6 10 3 15 -9 13 -12 11 -12 -6z"/>
<path d="M8995 7390 c-3 -5 -1 -10 4 -10 6 0 11 5 11 10 0 6 -2 10 -4 10 -3 0
-8 -4 -11 -10z"/>
<path d="M9176 7388 c3 -5 10 -6 15 -3 13 9 11 12 -6 12 -8 0 -12 -4 -9 -9z"/>
<path d="M11353 7385 c0 -8 4 -12 9 -9 5 3 6 10 3 15 -9 13 -12 11 -12 -6z"/>
<path d="M9140 7370 c-9 -6 -10 -10 -3 -10 6 0 15 5 18 10 8 12 4 12 -15 0z"/>
<path d="M8597 7348 c2 -5 -11 -8 -29 -8 -42 0 -175 -32 -253 -60 -148 -54
-312 -148 -432 -248 -34 -28 -154 -144 -267 -258 -130 -130 -210 -203 -217
-198 -8 4 -9 3 -5 -5 9 -14 -731 -758 -748 -753 -6 2 -8 0 -4 -4 7 -6 -62 -98
-87 -116 -5 -4 -6 -8 -2 -8 5 0 -4 -17 -20 -37 -57 -74 -161 -279 -179 -353
-2 -8 -12 -49 -23 -90 -34 -128 -43 -270 -27 -390 8 -61 14 -88 21 -100 3 -6
0 -10 -7 -10 -8 0 -9 -3 -2 -8 5 -4 23 -43 38 -87 15 -44 45 -112 66 -151 22
-40 37 -75 34 -78 -2 -3 -1 -4 3 -1 3 3 22 -20 42 -49 20 -30 59 -80 86 -112
28 -32 49 -62 47 -67 -1 -4 1 -7 5 -4 11 6 73 -59 65 -69 -4 -4 -2 -4 4 -1 5
3 28 -11 50 -31 110 -101 227 -174 379 -236 34 -14 59 -30 57 -37 -2 -9 0 -9
10 -2 9 8 26 8 61 -1 26 -7 46 -14 43 -17 -2 -2 14 -4 37 -5 23 -1 87 -2 142
-4 275 -7 583 112 834 323 27 23 36 26 43 15 8 -10 9 -9 5 3 -6 17 34 63 46
54 4 -3 5 -2 2 2 -8 11 47 63 59 56 6 -3 8 -2 3 2 -10 11 33 56 46 48 6 -3 7
-1 4 4 -7 12 26 46 36 38 4 -3 5 -2 2 2 -7 9 55 72 69 69 6 -2 7 -1 3 2 -5 2
2 15 14 28 12 13 26 21 32 17 6 -3 7 -1 4 4 -8 13 27 46 38 36 4 -5 5 -3 2 3
-6 10 98 122 108 117 3 -2 5 0 6 5 1 15 32 41 42 35 5 -3 7 -2 4 4 -8 13 117
136 128 126 4 -4 5 -3 2 3 -8 14 26 47 38 37 4 -5 5 -3 2 3 -8 14 126 147 138
137 4 -4 5 -3 2 3 -8 14 17 37 28 26 5 -4 5 -2 2 4 -6 11 14 37 24 31 2 -1 3
0 1 2 -1 2 6 13 15 23 17 19 16 19 -12 13 -17 -4 -43 -11 -60 -15 -78 -22
-160 -33 -270 -35 -66 -1 -124 0 -129 2 -4 3 -27 7 -50 9 -62 5 -178 43 -170
56 4 7 3 8 -5 4 -6 -4 -27 2 -47 15 l-35 21 -32 -28 c-17 -16 -39 -37 -49 -47
-9 -11 -22 -16 -29 -11 -8 4 -9 3 -5 -5 13 -20 -456 -477 -540 -527 -81 -48
-170 -83 -223 -88 -21 -1 -44 -6 -51 -11 -7 -4 -16 -2 -21 6 -6 10 -9 11 -9 1
0 -9 -13 -11 -47 -6 -27 3 -54 6 -60 6 -7 1 -13 5 -13 9 0 5 -6 6 -13 3 -8 -3
-24 -1 -38 4 -13 5 -28 10 -34 11 -39 7 -197 119 -188 133 3 6 2 8 -4 5 -19
-12 -140 134 -127 154 4 8 3 9 -4 5 -14 -8 -56 70 -46 86 5 7 3 8 -6 3 -10 -6
-12 -3 -8 13 4 12 2 20 -3 16 -8 -5 -13 20 -12 69 0 9 -5 17 -10 17 -5 0 -4 6
2 14 9 11 9 16 0 21 -16 10 -7 100 20 193 24 86 93 201 169 282 40 44 79 77
84 73 6 -3 8 -2 5 4 -8 13 37 56 48 46 4 -5 5 -3 2 3 -7 12 25 47 36 39 4 -3
5 -2 2 2 -7 9 55 72 69 69 6 -2 7 -1 3 2 -5 2 2 15 14 28 12 13 26 21 32 17 6
-3 7 -1 4 4 -4 6 2 18 12 27 10 10 21 14 23 9 3 -4 4 -3 2 3 -2 11 98 117 107
112 2 -2 3 -1 1 1 -1 3 23 31 55 63 48 48 59 55 72 45 14 -10 14 -10 4 4 -10
13 -5 22 31 58 24 24 46 39 48 34 3 -4 4 -3 2 3 -3 14 50 66 59 59 4 -3 5 -2
2 2 -8 10 147 163 158 156 6 -3 7 -1 4 4 -8 13 17 36 28 25 5 -4 5 -2 2 4 -8
14 46 67 58 57 4 -5 5 -3 2 3 -8 14 156 177 168 167 4 -4 5 -3 2 3 -12 20 176
159 201 149 8 -3 10 0 6 7 -5 8 -2 9 9 5 10 -3 17 -3 17 2 0 8 37 19 93 27 15
2 38 6 52 8 18 3 23 1 19 -7 -5 -9 -3 -9 6 0 11 10 16 9 27 -5 8 -9 12 -12 9
-5 -4 8 4 10 26 9 18 -2 43 -4 56 -5 15 0 21 -5 16 -13 -4 -7 -3 -8 5 -4 16
11 113 -23 105 -36 -4 -7 -2 -8 5 -4 10 7 131 -58 131 -70 0 -3 -5 -2 -12 2
-7 4 -8 3 -4 -5 4 -6 12 -8 18 -5 14 9 141 -123 132 -138 -4 -6 -3 -8 3 -5 11
7 26 -12 69 -88 33 -60 52 -115 60 -173 3 -26 7 -48 9 -50 2 -2 94 87 204 198
120 120 206 198 213 194 6 -4 8 -3 4 4 -8 14 40 66 53 58 12 -8 -32 77 -72
140 -14 23 -23 45 -20 48 4 3 1 6 -5 6 -6 0 -26 21 -44 48 -18 26 -31 47 -29
47 7 0 -139 145 -191 191 -26 23 -44 45 -40 49 4 5 1 5 -5 1 -10 -6 -69 29
-93 54 -3 3 -36 22 -75 43 -38 20 -69 41 -68 46 2 6 -4 8 -12 5 -9 -4 -22 -1
-30 6 -8 7 -15 9 -15 5 0 -4 -6 -3 -12 3 -12 9 -134 46 -191 58 -23 5 -146 14
-234 17 -28 1 -49 -1 -46 -5z"/>
<path d="M11379 7358 c-5 -18 -6 -38 -1 -34 7 8 12 36 6 36 -2 0 -4 -1 -5 -2z"/>
<path d="M11335 7230 c3 -5 8 -10 11 -10 2 0 4 5 4 10 0 6 -5 10 -11 10 -5 0
-7 -4 -4 -10z"/>
<path d="M11290 7109 c0 -5 5 -7 10 -4 6 3 10 8 10 11 0 2 -4 4 -10 4 -5 0
-10 -5 -10 -11z"/>
<path d="M11375 7090 c3 -5 8 -10 11 -10 2 0 4 5 4 10 0 6 -5 10 -11 10 -5 0
-7 -4 -4 -10z"/>
<path d="M11466 7092 c-3 -5 1 -9 9 -9 8 0 12 4 9 9 -3 4 -7 8 -9 8 -2 0 -6
-4 -9 -8z"/>
<path d="M4466 7048 c3 -5 10 -6 15 -3 13 9 11 12 -6 12 -8 0 -12 -4 -9 -9z"/>
<path d="M2316 7017 c3 -10 9 -15 12 -12 3 3 0 11 -7 18 -10 9 -11 8 -5 -6z"/>
<path d="M11293 6995 c0 -8 4 -12 9 -9 5 3 6 10 3 15 -9 13 -12 11 -12 -6z"/>
<path d="M2295 6990 c3 -5 8 -10 11 -10 2 0 4 5 4 10 0 6 -5 10 -11 10 -5 0
-7 -4 -4 -10z"/>
<path d="M2170 6950 c0 -5 5 -10 11 -10 5 0 7 5 4 10 -3 6 -8 10 -11 10 -2 0
-4 -4 -4 -10z"/>
<path d="M2390 6953 c0 -6 8 -17 18 -24 16 -13 16 -13 2 6 -8 11 -16 22 -17
24 -2 2 -3 0 -3 -6z"/>
<path d="M11350 6946 c0 -2 8 -10 18 -17 15 -13 16 -12 3 4 -13 16 -21 21 -21
13z"/>
<path d="M2054 6906 c1 -8 5 -18 8 -22 4 -3 5 1 4 10 -1 8 -5 18 -8 22 -4 3
-5 -1 -4 -10z"/>
<path d="M2134 6912 c4 -3 14 -7 22 -8 9 -1 13 0 10 4 -4 3 -14 7 -22 8 -9 1
-13 0 -10 -4z"/>
<path d="M2199 6918 c-5 -18 -6 -38 -1 -34 7 8 12 36 6 36 -2 0 -4 -1 -5 -2z"/>
<path d="M11156 6892 c-3 -5 1 -9 9 -9 8 0 12 4 9 9 -3 4 -7 8 -9 8 -2 0 -6
-4 -9 -8z"/>
<path d="M1976 6868 c3 -5 10 -6 15 -3 13 9 11 12 -6 12 -8 0 -12 -4 -9 -9z"/>
<path d="M1886 6852 c-3 -5 1 -9 9 -9 8 0 12 4 9 9 -3 4 -7 8 -9 8 -2 0 -6 -4
-9 -8z"/>
<path d="M11195 6840 c-4 -6 -11 -7 -17 -4 -7 4 -8 2 -4 -5 6 -9 11 -9 22 0
14 11 18 19 10 19 -3 0 -8 -5 -11 -10z"/>
<path d="M11173 6795 c0 -8 4 -12 9 -9 5 3 6 10 3 15 -9 13 -12 11 -12 -6z"/>
<path d="M1795 6770 c-3 -5 -1 -10 4 -10 6 0 11 5 11 10 0 6 -2 10 -4 10 -3 0
-8 -4 -11 -10z"/>
<path d="M11105 6770 c-3 -6 1 -7 9 -4 18 7 21 14 7 14 -6 0 -13 -4 -16 -10z"/>
<path d="M11135 6750 c-3 -5 -1 -10 4 -10 6 0 11 5 11 10 0 6 -2 10 -4 10 -3
0 -8 -4 -11 -10z"/>
<path d="M1919 6723 c-13 -16 -12 -17 4 -4 9 7 17 15 17 17 0 8 -8 3 -21 -13z"/>
<path d="M9750 6736 c0 -2 7 -7 16 -10 8 -3 12 -2 9 4 -6 10 -25 14 -25 6z"/>
<path d="M8636 6697 c3 -10 9 -15 12 -12 3 3 0 11 -7 18 -10 9 -11 8 -5 -6z"/>
<path d="M2035 6690 c3 -5 8 -10 11 -10 2 0 4 5 4 10 0 6 -5 10 -11 10 -5 0
-7 -4 -4 -10z"/>
<path d="M8610 6669 c0 -5 5 -7 10 -4 6 3 10 8 10 11 0 2 -4 4 -10 4 -5 0 -10
-5 -10 -11z"/>
<path d="M8810 6669 c0 -5 5 -7 10 -4 6 3 10 8 10 11 0 2 -4 4 -10 4 -5 0 -10
-5 -10 -11z"/>
<path d="M8856 6672 c-3 -5 1 -9 9 -9 8 0 12 4 9 9 -3 4 -7 8 -9 8 -2 0 -6 -4
-9 -8z"/>
<path d="M11075 6669 c-3 -4 2 -6 10 -5 21 3 28 13 10 13 -9 0 -18 -4 -20 -8z"/>
<path d="M8895 6641 c-3 -5 -2 -12 3 -15 5 -3 9 1 9 9 0 17 -3 19 -12 6z"/>
<path d="M8610 6629 c0 -5 5 -7 10 -4 6 3 10 8 10 11 0 2 -4 4 -10 4 -5 0 -10
-5 -10 -11z"/>
<path d="M8573 6601 c0 -11 5 -18 9 -15 4 3 5 11 1 19 -7 21 -12 19 -10 -4z"/>
<path d="M8966 6592 c-3 -5 1 -9 9 -9 8 0 12 4 9 9 -3 4 -7 8 -9 8 -2 0 -6 -4
-9 -8z"/>
<path d="M10970 6589 c0 -5 5 -7 10 -4 6 3 10 8 10 11 0 2 -4 4 -10 4 -5 0
-10 -5 -10 -11z"/>
<path d="M11006 6592 c-3 -5 1 -9 9 -9 8 0 12 4 9 9 -3 4 -7 8 -9 8 -2 0 -6
-4 -9 -8z"/>
<path d="M8755 6581 c-3 -5 -2 -12 3 -15 5 -3 9 1 9 9 0 17 -3 19 -12 6z"/>
<path d="M8493 6561 c0 -11 5 -18 9 -15 4 3 5 11 1 19 -7 21 -12 19 -10 -4z"/>
<path d="M10890 6549 c0 -5 5 -7 10 -4 6 3 10 8 10 11 0 2 -4 4 -10 4 -5 0
-10 -5 -10 -11z"/>
<path d="M10930 6549 c0 -5 5 -7 10 -4 6 3 10 8 10 11 0 2 -4 4 -10 4 -5 0
-10 -5 -10 -11z"/>
<path d="M8459 6538 c-5 -18 -6 -38 -1 -34 7 8 12 36 6 36 -2 0 -4 -1 -5 -2z"/>
<path d="M10934 6506 c1 -8 5 -18 8 -22 4 -3 5 1 4 10 -1 8 -5 18 -8 22 -4 3
-5 -1 -4 -10z"/>
<path d="M9739 6498 c-5 -18 -6 -38 -1 -34 7 8 12 36 6 36 -2 0 -4 -1 -5 -2z"/>
<path d="M8335 6470 c-3 -5 -1 -10 4 -10 6 0 11 5 11 10 0 6 -2 10 -4 10 -3 0
-8 -4 -11 -10z"/>
<path d="M10850 6469 c0 -5 5 -7 10 -4 6 3 10 8 10 11 0 2 -4 4 -10 4 -5 0
-10 -5 -10 -11z"/>
<path d="M9676 6457 c3 -10 9 -15 12 -12 3 3 0 11 -7 18 -10 9 -11 8 -5 -6z"/>
<path d="M8319 6423 c-12 -16 -12 -17 2 -6 9 7 20 9 24 5 5 -4 5 -1 1 6 -9 16
-11 15 -27 -5z"/>
<path d="M9650 6430 c0 -5 5 -10 11 -10 5 0 7 5 4 10 -3 6 -8 10 -11 10 -2 0
-4 -4 -4 -10z"/>
<path d="M9734 6426 c1 -8 5 -18 8 -22 4 -3 5 1 4 10 -1 8 -5 18 -8 22 -4 3
-5 -1 -4 -10z"/>
<path d="M8275 6419 c-4 -6 -5 -12 -2 -15 2 -3 7 2 10 11 7 17 1 20 -8 4z"/>
<path d="M10913 6415 c0 -8 4 -12 9 -9 5 3 6 10 3 15 -9 13 -12 11 -12 -6z"/>
<path d="M10854 6392 c4 -3 14 -7 22 -8 9 -1 13 0 10 4 -4 3 -14 7 -22 8 -9 1
-13 0 -10 -4z"/>
<path d="M9575 6350 c3 -5 8 -10 11 -10 2 0 4 5 4 10 0 6 -5 10 -11 10 -5 0
-7 -4 -4 -10z"/>
<path d="M9694 6352 c4 -3 14 -7 22 -8 9 -1 13 0 10 4 -4 3 -14 7 -22 8 -9 1
-13 0 -10 -4z"/>
<path d="M10814 6352 c4 -3 14 -7 22 -8 9 -1 13 0 10 4 -4 3 -14 7 -22 8 -9 1
-13 0 -10 -4z"/>
<path d="M9573 6315 c0 -8 4 -12 9 -9 5 3 6 10 3 15 -9 13 -12 11 -12 -6z"/>
<path d="M9635 6309 c-3 -4 2 -6 10 -5 21 3 28 13 10 13 -9 0 -18 -4 -20 -8z"/>
<path d="M10733 6313 c4 -3 1 -13 -6 -22 -11 -14 -10 -14 5 -2 16 12 16 31 1
31 -4 0 -3 -3 0 -7z"/>
<path d="M9110 6291 c0 -6 4 -13 10 -16 6 -3 7 1 4 9 -7 18 -14 21 -14 7z"/>
<path d="M9216 6283 c-6 -14 -5 -15 5 -6 7 7 10 15 7 18 -3 3 -9 -2 -12 -12z"/>
<path d="M10766 6292 c-3 -5 1 -9 9 -9 8 0 12 4 9 9 -3 4 -7 8 -9 8 -2 0 -6
-4 -9 -8z"/>
<path d="M8025 6270 c-3 -6 1 -7 9 -4 18 7 21 14 7 14 -6 0 -13 -4 -16 -10z"/>
<path d="M10690 6269 c0 -5 5 -7 10 -4 6 3 10 8 10 11 0 2 -4 4 -10 4 -5 0
-10 -5 -10 -11z"/>
<path d="M8155 6259 c-4 -6 -5 -12 -2 -15 2 -3 7 2 10 11 7 17 1 20 -8 4z"/>
<path d="M8064 6252 c4 -3 14 -7 22 -8 9 -1 13 0 10 4 -4 3 -14 7 -22 8 -9 1
-13 0 -10 -4z"/>
<path d="M9619 6258 c-5 -18 -6 -38 -1 -34 7 8 12 36 6 36 -2 0 -4 -1 -5 -2z"/>
<path d="M8075 6210 c3 -5 8 -10 11 -10 2 0 4 5 4 10 0 6 -5 10 -11 10 -5 0
-7 -4 -4 -10z"/>
<path d="M10653 6195 c0 -8 4 -12 9 -9 5 3 6 10 3 15 -9 13 -12 11 -12 -6z"/>
<path d="M8010 6149 c0 -5 5 -7 10 -4 6 3 10 8 10 11 0 2 -4 4 -10 4 -5 0 -10
-5 -10 -11z"/>
<path d="M10555 6149 c-3 -4 2 -6 10 -5 21 3 28 13 10 13 -9 0 -18 -4 -20 -8z"/>
<path d="M10533 6115 c0 -8 4 -12 9 -9 5 3 6 10 3 15 -9 13 -12 11 -12 -6z"/>
<path d="M7970 6110 c0 -5 5 -10 11 -10 5 0 7 5 4 10 -3 6 -8 10 -11 10 -2 0
-4 -4 -4 -10z"/>
<path d="M7816 6083 c-6 -14 -5 -15 5 -6 7 7 10 15 7 18 -3 3 -9 -2 -12 -12z"/>
<path d="M7886 6088 c3 -5 10 -6 15 -3 13 9 11 12 -6 12 -8 0 -12 -4 -9 -9z"/>
<path d="M10486 6028 c3 -5 10 -6 15 -3 13 9 11 12 -6 12 -8 0 -12 -4 -9 -9z"/>
<path d="M7750 6026 c0 -2 8 -10 18 -17 15 -13 16 -12 3 4 -13 16 -21 21 -21
13z"/>
<path d="M10375 5990 c-3 -5 -1 -10 4 -10 6 0 11 5 11 10 0 6 -2 10 -4 10 -3
0 -8 -4 -11 -10z"/>
<path d="M10410 5989 c0 -5 5 -7 10 -4 6 3 10 8 10 11 0 2 -4 4 -10 4 -5 0
-10 -5 -10 -11z"/>
<path d="M10330 5950 c0 -5 5 -10 11 -10 5 0 7 5 4 10 -3 6 -8 10 -11 10 -2 0
-4 -4 -4 -10z"/>
<path d="M10413 5945 c0 -8 4 -12 9 -9 5 3 6 10 3 15 -9 13 -12 11 -12 -6z"/>
<path d="M7713 5895 c0 -8 4 -15 9 -15 4 0 8 4 8 9 0 6 -4 12 -8 15 -5 3 -9
-1 -9 -9z"/>
<path d="M7630 5886 c7 -7 13 -7 20 0 6 6 3 10 -10 10 -13 0 -16 -4 -10 -10z"/>
<path d="M7680 5890 c-9 -6 -10 -10 -3 -10 6 0 15 5 18 10 8 12 4 12 -15 0z"/>
<path d="M7777 5885 c-4 -8 -3 -16 1 -19 4 -3 9 4 9 15 2 23 -3 25 -10 4z"/>
<path d="M7734 5832 c4 -3 14 -7 22 -8 9 -1 13 0 10 4 -4 3 -14 7 -22 8 -9 1
-13 0 -10 -4z"/>
<path d="M10210 5829 c0 -5 5 -7 10 -4 6 3 10 8 10 11 0 2 -4 4 -10 4 -5 0
-10 -5 -10 -11z"/>
<path d="M10254 5832 c4 -3 14 -7 22 -8 9 -1 13 0 10 4 -4 3 -14 7 -22 8 -9 1
-13 0 -10 -4z"/>
<path d="M7695 5810 c-3 -5 -1 -10 4 -10 6 0 11 5 11 10 0 6 -2 10 -4 10 -3 0
-8 -4 -11 -10z"/>
<path d="M7615 5791 c-3 -5 -2 -12 3 -15 5 -3 9 1 9 9 0 17 -3 19 -12 6z"/>
<path d="M10135 5790 c3 -5 8 -10 11 -10 2 0 4 5 4 10 0 6 -5 10 -11 10 -5 0
-7 -4 -4 -10z"/>
<path d="M10170 5789 c0 -5 5 -7 10 -4 6 3 10 8 10 11 0 2 -4 4 -10 4 -5 0
-10 -5 -10 -11z"/>
<path d="M10206 5792 c-3 -5 1 -9 9 -9 8 0 12 4 9 9 -3 4 -7 8 -9 8 -2 0 -6
-4 -9 -8z"/>
<path d="M10255 5789 c-3 -4 2 -6 10 -5 21 3 28 13 10 13 -9 0 -18 -4 -20 -8z"/>
<path d="M10310 5770 c0 -5 5 -10 11 -10 5 0 7 5 4 10 -3 6 -8 10 -11 10 -2 0
-4 -4 -4 -10z"/>
<path d="M7606 5752 c-3 -5 1 -9 9 -9 8 0 12 4 9 9 -3 4 -7 8 -9 8 -2 0 -6 -4
-9 -8z"/>
<path d="M10095 5750 c3 -5 8 -10 11 -10 2 0 4 5 4 10 0 6 -5 10 -11 10 -5 0
-7 -4 -4 -10z"/>
<path d="M10135 5750 c3 -5 8 -10 11 -10 2 0 4 5 4 10 0 6 -5 10 -11 10 -5 0
-7 -4 -4 -10z"/>
<path d="M10181 5726 c-9 -11 -9 -16 1 -22 7 -4 10 -4 6 1 -4 4 -3 14 3 22 6
7 9 13 6 13 -2 0 -10 -6 -16 -14z"/>
<path d="M10095 5710 c-3 -5 -1 -10 4 -10 6 0 11 5 11 10 0 6 -2 10 -4 10 -3
0 -8 -4 -11 -10z"/>
<path d="M7436 5697 c3 -10 9 -15 12 -12 3 3 0 11 -7 18 -10 9 -11 8 -5 -6z"/>
<path d="M7475 5701 c-3 -5 -2 -12 3 -15 5 -3 9 1 9 9 0 17 -3 19 -12 6z"/>
<path d="M10074 5672 c4 -3 14 -7 22 -8 9 -1 13 0 10 4 -4 3 -14 7 -22 8 -9 1
-13 0 -10 -4z"/>
<path d="M7433 5655 c0 -8 4 -12 9 -9 5 3 6 10 3 15 -9 13 -12 11 -12 -6z"/>
<path d="M10170 5649 c0 -5 5 -7 10 -4 6 3 10 8 10 11 0 2 -4 4 -10 4 -5 0
-10 -5 -10 -11z"/>
<path d="M7390 5609 c0 -5 5 -7 10 -4 6 3 10 8 10 11 0 2 -4 4 -10 4 -5 0 -10
-5 -10 -11z"/>
<path d="M10056 5592 c-3 -5 1 -9 9 -9 8 0 12 4 9 9 -3 4 -7 8 -9 8 -2 0 -6
-4 -9 -8z"/>
<path d="M10015 5549 c-3 -4 2 -6 10 -5 21 3 28 13 10 13 -9 0 -18 -4 -20 -8z"/>
<path d="M10075 5539 c-4 -6 -5 -12 -2 -15 2 -3 7 2 10 11 7 17 1 20 -8 4z"/>
<path d="M7295 5510 c-3 -5 -1 -10 4 -10 6 0 11 5 11 10 0 6 -2 10 -4 10 -3 0
-8 -4 -11 -10z"/>
<path d="M7336 5512 c-2 -4 -1 -14 4 -22 7 -11 9 -9 7 8 -1 24 -3 26 -11 14z"/>
<path d="M9854 5446 c1 -8 5 -18 8 -22 4 -3 5 1 4 10 -1 8 -5 18 -8 22 -4 3
-5 -1 -4 -10z"/>
<path d="M7255 5430 c3 -5 8 -10 11 -10 2 0 4 5 4 10 0 6 -5 10 -11 10 -5 0
-7 -4 -4 -10z"/>
<path d="M7159 5403 c-13 -16 -12 -17 4 -4 9 7 17 15 17 17 0 8 -8 3 -21 -13z"/>
<path d="M7315 5391 c-3 -5 -2 -12 3 -15 5 -3 9 1 9 9 0 17 -3 19 -12 6z"/>
<path d="M9730 5389 c0 -5 5 -7 10 -4 6 3 10 8 10 11 0 2 -4 4 -10 4 -5 0 -10
-5 -10 -11z"/>
<path d="M9853 5385 c0 -8 4 -12 9 -9 5 3 6 10 3 15 -9 13 -12 11 -12 -6z"/>
<path d="M7146 5368 c3 -5 10 -6 15 -3 13 9 11 12 -6 12 -8 0 -12 -4 -9 -9z"/>
<path d="M7206 5348 c3 -5 10 -6 15 -3 13 9 11 12 -6 12 -8 0 -12 -4 -9 -9z"/>
<path d="M9714 5352 c4 -3 14 -7 22 -8 9 -1 13 0 10 4 -4 3 -14 7 -22 8 -9 1
-13 0 -10 -4z"/>
<path d="M9776 5352 c-3 -5 1 -9 9 -9 8 0 12 4 9 9 -3 4 -7 8 -9 8 -2 0 -6 -4
-9 -8z"/>
<path d="M7069 5333 c-13 -16 -12 -17 4 -4 9 7 17 15 17 17 0 8 -8 3 -21 -13z"/>
<path d="M9576 5337 c3 -10 9 -15 12 -12 3 3 0 11 -7 18 -10 9 -11 8 -5 -6z"/>
<path d="M7419 5323 c-13 -16 -12 -17 4 -4 9 7 17 15 17 17 0 8 -8 3 -21 -13z"/>
<path d="M9947 5329 c7 -7 15 -10 18 -7 3 3 -2 9 -12 12 -14 6 -15 5 -6 -5z"/>
<path d="M7135 5310 c-3 -5 -1 -10 4 -10 6 0 11 5 11 10 0 6 -2 10 -4 10 -3 0
-8 -4 -11 -10z"/>
<path d="M9635 5309 c-3 -4 2 -6 10 -5 21 3 28 13 10 13 -9 0 -18 -4 -20 -8z"/>
<path d="M7026 5275 c-11 -8 -15 -15 -9 -15 6 0 16 7 23 15 16 19 11 19 -14 0z"/>
<path d="M9995 5279 c-4 -6 -5 -12 -2 -15 2 -3 7 2 10 11 7 17 1 20 -8 4z"/>
<path d="M7130 5270 c0 -5 5 -10 11 -10 5 0 7 5 4 10 -3 6 -8 10 -11 10 -2 0
-4 -4 -4 -10z"/>
<path d="M7196 5252 c-3 -5 1 -9 9 -9 8 0 12 4 9 9 -3 4 -7 8 -9 8 -2 0 -6 -4
-9 -8z"/>
<path d="M9494 5246 c1 -8 5 -18 8 -22 4 -3 5 1 4 10 -1 8 -5 18 -8 22 -4 3
-5 -1 -4 -10z"/>
<path d="M9455 5230 c-3 -5 -1 -10 4 -10 6 0 11 5 11 10 0 6 -2 10 -4 10 -3 0
-8 -4 -11 -10z"/>
<path d="M9595 5230 c-3 -5 -1 -10 4 -10 6 0 11 5 11 10 0 6 -2 10 -4 10 -3 0
-8 -4 -11 -10z"/>
<path d="M7117 5223 c-10 -9 -9 -23 1 -23 5 0 9 7 9 15 0 17 -1 18 -10 8z"/>
<path d="M9395 5189 c-3 -4 2 -6 10 -5 21 3 28 13 10 13 -9 0 -18 -4 -20 -8z"/>
<path d="M9515 5190 c3 -5 8 -10 11 -10 2 0 4 5 4 10 0 6 -5 10 -11 10 -5 0
-7 -4 -4 -10z"/>
<path d="M9230 5155 c0 -7 30 -13 34 -7 3 4 -4 9 -15 9 -10 1 -19 0 -19 -2z"/>
<path d="M8795 5120 c-4 -6 -11 -7 -17 -4 -7 4 -8 2 -4 -5 6 -9 11 -9 22 0 14
11 18 19 10 19 -3 0 -8 -5 -11 -10z"/>
<path d="M8855 5110 c5 -8 42 -6 50 1 2 3 -8 5 -25 5 -16 0 -27 -3 -25 -6z"/>
<path d="M9093 5105 c0 -8 4 -12 9 -9 5 3 6 10 3 15 -9 13 -12 11 -12 -6z"/>
<path d="M9234 5112 c4 -3 14 -7 22 -8 9 -1 13 0 10 4 -4 3 -14 7 -22 8 -9 1
-13 0 -10 -4z"/>
<path d="M9310 5109 c0 -5 5 -7 10 -4 6 3 10 8 10 11 0 2 -4 4 -10 4 -5 0 -10
-5 -10 -11z"/>
<path d="M9150 5092 c0 -5 7 -9 15 -9 8 0 12 4 9 9 -3 4 -9 8 -15 8 -5 0 -9
-4 -9 -8z"/>
<path d="M9636 5088 c3 -5 10 -6 15 -3 13 9 11 12 -6 12 -8 0 -12 -4 -9 -9z"/>
<path d="M8895 5069 c-3 -4 2 -6 10 -5 21 3 28 13 10 13 -9 0 -18 -4 -20 -8z"/>
<path d="M8966 5072 c-3 -5 1 -9 9 -9 8 0 12 4 9 9 -3 4 -7 8 -9 8 -2 0 -6 -4
-9 -8z"/>
<path d="M9095 5069 c-3 -4 2 -6 10 -5 21 3 28 13 10 13 -9 0 -18 -4 -20 -8z"/>
<path d="M8755 5050 c3 -5 8 -10 11 -10 2 0 4 5 4 10 0 6 -5 10 -11 10 -5 0
-7 -4 -4 -10z"/>
<path d="M9019 5058 c-5 -18 -6 -38 -1 -34 7 8 12 36 6 36 -2 0 -4 -1 -5 -2z"/>
<path d="M9055 5050 c-3 -5 -1 -10 4 -10 6 0 11 5 11 10 0 6 -2 10 -4 10 -3 0
-8 -4 -11 -10z"/>
<path d="M7035 5030 c3 -5 8 -10 11 -10 2 0 4 5 4 10 0 6 -5 10 -11 10 -5 0
-7 -4 -4 -10z"/>
<path d="M8933 5019 c-2 -23 3 -25 10 -4 4 8 3 16 -1 19 -4 3 -9 -4 -9 -15z"/>
<path d="M9116 5023 c-6 -14 -5 -15 5 -6 7 7 10 15 7 18 -3 3 -9 -2 -12 -12z"/>
<path d="M7019 5018 c-5 -18 -6 -38 -1 -34 7 8 12 36 6 36 -2 0 -4 -1 -5 -2z"/>
<path d="M8847 5009 c7 -7 15 -10 18 -7 3 3 -2 9 -12 12 -14 6 -15 5 -6 -5z"/>
<path d="M7019 4898 c-5 -18 -6 -38 -1 -34 7 8 12 36 6 36 -2 0 -4 -1 -5 -2z"/>
<path d="M6955 4850 c3 -5 8 -10 11 -10 2 0 4 5 4 10 0 6 -5 10 -11 10 -5 0
-7 -4 -4 -10z"/>
<path d="M9276 4777 c3 -10 9 -15 12 -12 3 3 0 11 -7 18 -10 9 -11 8 -5 -6z"/>
<path d="M5987 4769 c7 -7 15 -10 18 -7 3 3 -2 9 -12 12 -14 6 -15 5 -6 -5z"/>
<path d="M6993 4745 c0 -8 4 -12 9 -9 5 3 6 10 3 15 -9 13 -12 11 -12 -6z"/>
<path d="M5150 4730 c0 -5 5 -10 11 -10 5 0 7 5 4 10 -3 6 -8 10 -11 10 -2 0
-4 -4 -4 -10z"/>
<path d="M5334 4686 c1 -8 5 -18 8 -22 4 -3 5 1 4 10 -1 8 -5 18 -8 22 -4 3
-5 -1 -4 -10z"/>
<path d="M5090 4669 c0 -5 5 -7 10 -4 6 3 10 8 10 11 0 2 -4 4 -10 4 -5 0 -10
-5 -10 -11z"/>
<path d="M5234 4672 c4 -3 14 -7 22 -8 9 -1 13 0 10 4 -4 3 -14 7 -22 8 -9 1
-13 0 -10 -4z"/>
<path d="M5416 4672 c-3 -5 1 -9 9 -9 8 0 12 4 9 9 -3 4 -7 8 -9 8 -2 0 -6 -4
-9 -8z"/>
<path d="M7186 4652 c-3 -5 1 -9 9 -9 8 0 12 4 9 9 -3 4 -7 8 -9 8 -2 0 -6 -4
-9 -8z"/>
<path d="M5155 4610 c3 -5 8 -10 11 -10 2 0 4 5 4 10 0 6 -5 10 -11 10 -5 0
-7 -4 -4 -10z"/>
<path d="M5276 4608 c3 -5 10 -6 15 -3 13 9 11 12 -6 12 -8 0 -12 -4 -9 -9z"/>
<path d="M6316 4603 c-6 -14 -5 -15 5 -6 7 7 10 15 7 18 -3 3 -9 -2 -12 -12z"/>
<path d="M5015 4590 c3 -5 8 -10 11 -10 2 0 4 5 4 10 0 6 -5 10 -11 10 -5 0
-7 -4 -4 -10z"/>
<path d="M5136 4592 c-2 -4 -1 -14 4 -22 7 -11 9 -9 7 8 -1 24 -3 26 -11 14z"/>
<path d="M8886 4588 c3 -5 10 -6 15 -3 13 9 11 12 -6 12 -8 0 -12 -4 -9 -9z"/>
<path d="M8934 4588 c-4 -7 -4 -10 1 -6 4 4 15 2 24 -5 14 -11 14 -10 2 6 -16
20 -18 21 -27 5z"/>
<path d="M5090 4570 c0 -5 5 -10 11 -10 5 0 7 5 4 10 -3 6 -8 10 -11 10 -2 0
-4 -4 -4 -10z"/>
<path d="M3795 4559 c-4 -6 -5 -12 -2 -15 2 -3 7 2 10 11 7 17 1 20 -8 4z"/>
<path d="M5013 4555 c0 -8 4 -12 9 -9 5 3 6 10 3 15 -9 13 -12 11 -12 -6z"/>
<path d="M8895 4561 c-3 -5 -2 -12 3 -15 5 -3 9 1 9 9 0 17 -3 19 -12 6z"/>
<path d="M4855 4550 c3 -5 8 -10 11 -10 2 0 4 5 4 10 0 6 -5 10 -11 10 -5 0
-7 -4 -4 -10z"/>
<path d="M4934 4506 c1 -8 5 -18 8 -22 4 -3 5 1 4 10 -1 8 -5 18 -8 22 -4 3
-5 -1 -4 -10z"/>
<path d="M4970 4515 c0 -5 5 -17 10 -25 5 -8 10 -10 10 -5 0 6 -5 17 -10 25
-5 8 -10 11 -10 5z"/>
<path d="M8815 4510 c-3 -5 -1 -10 4 -10 6 0 11 5 11 10 0 6 -2 10 -4 10 -3 0
-8 -4 -11 -10z"/>
<path d="M8894 4506 c1 -8 5 -18 8 -22 4 -3 5 1 4 10 -1 8 -5 18 -8 22 -4 3
-5 -1 -4 -10z"/>
<path d="M4186 4488 c3 -5 10 -6 15 -3 13 9 11 12 -6 12 -8 0 -12 -4 -9 -9z"/>
<path d="M4236 4492 c-3 -5 1 -9 9 -9 8 0 12 4 9 9 -3 4 -7 8 -9 8 -2 0 -6 -4
-9 -8z"/>
<path d="M4335 4470 c3 -5 8 -10 11 -10 2 0 4 5 4 10 0 6 -5 10 -11 10 -5 0
-7 -4 -4 -10z"/>
<path d="M8810 4469 c0 -5 5 -7 10 -4 6 3 10 8 10 11 0 2 -4 4 -10 4 -5 0 -10
-5 -10 -11z"/>
<path d="M4475 4459 c-4 -6 -5 -12 -2 -15 2 -3 7 2 10 11 7 17 1 20 -8 4z"/>
<path d="M4909 4453 c-13 -16 -12 -17 4 -4 9 7 17 15 17 17 0 8 -8 3 -21 -13z"/>
<path d="M4070 4451 c0 -6 4 -13 10 -16 6 -3 7 1 4 9 -7 18 -14 21 -14 7z"/>
<path d="M4110 4449 c0 -5 5 -7 10 -4 6 3 10 8 10 11 0 2 -4 4 -10 4 -5 0 -10
-5 -10 -11z"/>
<path d="M4196 4452 c-3 -5 1 -9 9 -9 8 0 12 4 9 9 -3 4 -7 8 -9 8 -2 0 -6 -4
-9 -8z"/>
<path d="M4813 4441 c0 -11 5 -18 9 -15 4 3 5 11 1 19 -7 21 -12 19 -10 -4z"/>
<path d="M6196 4452 c-3 -5 1 -9 9 -9 8 0 12 4 9 9 -3 4 -7 8 -9 8 -2 0 -6 -4
-9 -8z"/>
<path d="M8815 4441 c-3 -5 -2 -12 3 -15 5 -3 9 1 9 9 0 17 -3 19 -12 6z"/>
<path d="M4179 4418 c-5 -18 -6 -38 -1 -34 7 8 12 36 6 36 -2 0 -4 -1 -5 -2z"/>
<path d="M4254 4406 c1 -8 5 -18 8 -22 4 -3 5 1 4 10 -1 8 -5 18 -8 22 -4 3
-5 -1 -4 -10z"/>
<path d="M4734 4406 c1 -8 5 -18 8 -22 4 -3 5 1 4 10 -1 8 -5 18 -8 22 -4 3
-5 -1 -4 -10z"/>
<path d="M4035 4390 c3 -5 8 -10 11 -10 2 0 4 5 4 10 0 6 -5 10 -11 10 -5 0
-7 -4 -4 -10z"/>
<path d="M4326 4388 c3 -5 10 -6 15 -3 13 9 11 12 -6 12 -8 0 -12 -4 -9 -9z"/>
<path d="M4413 4393 c4 -3 1 -13 -6 -22 -11 -14 -10 -14 5 -2 16 12 16 31 1
31 -4 0 -3 -3 0 -7z"/>
<path d="M8713 4375 c0 -8 4 -12 9 -9 5 3 6 10 3 15 -9 13 -12 11 -12 -6z"/>
<path d="M4529 4367 c6 -8 7 -18 3 -22 -4 -5 -1 -5 6 -1 10 6 10 11 1 22 -6 8
-14 14 -16 14 -3 0 0 -6 6 -13z"/>
<path d="M4155 4359 c-4 -6 -5 -12 -2 -15 2 -3 7 2 10 11 7 17 1 20 -8 4z"/>
<path d="M4950 4346 c0 -2 8 -10 18 -17 15 -13 16 -12 3 4 -13 16 -21 21 -21
13z"/>
<path d="M4399 4323 c-13 -16 -12 -17 4 -4 16 13 21 21 13 21 -2 0 -10 -8 -17
-17z"/>
<path d="M4765 4330 c-3 -6 1 -7 9 -4 18 7 21 14 7 14 -6 0 -13 -4 -16 -10z"/>
<path d="M8670 4329 c0 -5 5 -7 10 -4 6 3 10 8 10 11 0 2 -4 4 -10 4 -5 0 -10
-5 -10 -11z"/>
<path d="M4515 4319 c-4 -6 -5 -12 -2 -15 2 -3 7 2 10 11 7 17 1 20 -8 4z"/>
<path d="M8677 4303 c-10 -9 -9 -23 1 -23 5 0 9 7 9 15 0 17 -1 18 -10 8z"/>
<path d="M8793 4295 c0 -8 4 -12 9 -9 5 3 6 10 3 15 -9 13 -12 11 -12 -6z"/>
<path d="M4070 4296 c0 -2 7 -7 16 -10 8 -3 12 -2 9 4 -6 10 -25 14 -25 6z"/>
<path d="M8715 4239 c-4 -6 -5 -12 -2 -15 2 -3 7 2 10 11 7 17 1 20 -8 4z"/>
<path d="M8610 4230 c0 -5 5 -10 11 -10 5 0 7 5 4 10 -3 6 -8 10 -11 10 -2 0
-4 -4 -4 -10z"/>
<path d="M8595 4150 c3 -5 8 -10 11 -10 2 0 4 5 4 10 0 6 -5 10 -11 10 -5 0
-7 -4 -4 -10z"/>
<path d="M4159 4083 c-13 -16 -12 -17 4 -4 9 7 17 15 17 17 0 8 -8 3 -21 -13z"/>
<path d="M8330 4030 c0 -5 5 -10 11 -10 5 0 7 5 4 10 -3 6 -8 10 -11 10 -2 0
-4 -4 -4 -10z"/>
<path d="M8370 4030 c0 -5 5 -10 11 -10 5 0 7 5 4 10 -3 6 -8 10 -11 10 -2 0
-4 -4 -4 -10z"/>
<path d="M8455 4031 c-3 -5 -2 -12 3 -15 5 -3 9 1 9 9 0 17 -3 19 -12 6z"/>
<path d="M4156 4003 c-6 -14 -5 -15 5 -6 7 7 10 15 7 18 -3 3 -9 -2 -12 -12z"/>
<path d="M8279 4003 c-13 -16 -12 -17 4 -4 16 13 21 21 13 21 -2 0 -10 -8 -17
-17z"/>
<path d="M8330 3990 c0 -5 5 -10 11 -10 5 0 7 5 4 10 -3 6 -8 10 -11 10 -2 0
-4 -4 -4 -10z"/>
<path d="M8376 3992 c-3 -5 1 -9 9 -9 8 0 12 4 9 9 -3 4 -7 8 -9 8 -2 0 -6 -4
-9 -8z"/>
<path d="M8430 3953 c0 -6 8 -17 18 -24 16 -13 16 -13 2 6 -8 11 -16 22 -17
24 -2 2 -3 0 -3 -6z"/>
<path d="M8295 3911 c-3 -5 -2 -12 3 -15 5 -3 9 1 9 9 0 17 -3 19 -12 6z"/>
<path d="M8336 3912 c-2 -4 -1 -14 4 -22 7 -11 9 -9 7 8 -1 24 -3 26 -11 14z"/>
<path d="M8115 3899 c-4 -6 -5 -12 -2 -15 2 -3 7 2 10 11 7 17 1 20 -8 4z"/>
<path d="M8154 3856 c1 -8 5 -18 8 -22 4 -3 5 1 4 10 -1 8 -5 18 -8 22 -4 3
-5 -1 -4 -10z"/>
<path d="M7975 3830 c3 -5 8 -10 11 -10 2 0 4 5 4 10 0 6 -5 10 -11 10 -5 0
-7 -4 -4 -10z"/>
<path d="M8140 3816 c0 -2 8 -10 18 -17 15 -13 16 -12 3 4 -13 16 -21 21 -21
13z"/>
<path d="M7930 3790 c0 -5 5 -10 11 -10 5 0 7 5 4 10 -3 6 -8 10 -11 10 -2 0
-4 -4 -4 -10z"/>
<path d="M7975 3790 c-3 -5 -1 -10 4 -10 6 0 11 5 11 10 0 6 -2 10 -4 10 -3 0
-8 -4 -11 -10z"/>
<path d="M7690 3750 c0 -5 5 -10 11 -10 5 0 7 5 4 10 -3 6 -8 10 -11 10 -2 0
-4 -4 -4 -10z"/>
<path d="M7770 3750 c0 -5 5 -10 11 -10 5 0 7 5 4 10 -3 6 -8 10 -11 10 -2 0
-4 -4 -4 -10z"/>
<path d="M7810 3749 c0 -5 5 -7 10 -4 6 3 10 8 10 11 0 2 -4 4 -10 4 -5 0 -10
-5 -10 -11z"/>
<path d="M7196 3737 c3 -10 9 -15 12 -12 3 3 0 11 -7 18 -10 9 -11 8 -5 -6z"/>
<path d="M8275 3739 c-4 -6 -5 -12 -2 -15 2 -3 7 2 10 11 7 17 1 20 -8 4z"/>
<path d="M7513 3725 c0 -8 4 -12 9 -9 5 3 6 10 3 15 -9 13 -12 11 -12 -6z"/>
<path d="M7646 3728 c3 -5 10 -6 15 -3 13 9 11 12 -6 12 -8 0 -12 -4 -9 -9z"/>
<path d="M7594 3712 c4 -3 14 -7 22 -8 9 -1 13 0 10 4 -4 3 -14 7 -22 8 -9 1
-13 0 -10 -4z"/>
<path d="M7774 3712 c4 -3 14 -7 22 -8 9 -1 13 0 10 4 -4 3 -14 7 -22 8 -9 1
-13 0 -10 -4z"/>
<path d="M7700 3696 c0 -2 8 -10 18 -17 15 -13 16 -12 3 4 -13 16 -21 21 -21
13z"/>
<path d="M8115 3650 c-3 -5 -1 -10 4 -10 6 0 11 5 11 10 0 6 -2 10 -4 10 -3 0
-8 -4 -11 -10z"/>
</g>
</svg>
